<?xml version="1.0" encoding="utf-8"?>
<!-- Generator: Adobe Illustrator 22.0.1, SVG Export Plug-In . SVG Version: 6.00 Build 0)  -->
<svg version="1.1" id="Layer_3" xmlns="http://www.w3.org/2000/svg" xmlns:xlink="http://www.w3.org/1999/xlink" x="0px" y="0px"
	 viewBox="0 0 1280 800" style="enable-background:new 0 0 1280 800;" xml:space="preserve">
<style type="text/css">
	.st0{fill:#1A1A1A;}
	.st1{fill:none;stroke:#FFFFFF;stroke-miterlimit:10;}
	.st2{fill:#0F0F0F;}
	.st3{fill:#5F6378;}
	.st4{fill:#121212;}
	.st5{fill:#FFDFCC;}
	.st6{fill:#4C5062;}
	.st7{fill:#6F6FD1;}
	.st8{fill:#9E8062;}
	.st9{fill:#FFC4AE;}
	.st10{fill:#FFCCAD;}
	.st11{fill:#4F4D26;}
	.st12{fill:#C16A6D;}
	.st13{fill:#FCF047;}
	.st14{fill:#F8F192;}
	.st15{fill:#FCF379;}
</style>
<g>
	<polyline class="st0" points="952.1,767.2 1041.4,473 905.4,407.3 806.6,436.3 804.9,771.5 	"/>
	<polyline class="st1" points="952.1,767.2 1041.4,473 905.4,407.3 806.6,436.3 804.9,771.5 	"/>
	<path class="st2" d="M871.1,430c-0.3,55.4-1.1,111.8-2.5,169c-1.4,60.2-3.5,119.5-6,177.7c15,0,30,0,45,0
		c2.4-56.7,7-117.5,14.7-181.7c6.9-57.9,15.6-112.4,25.3-163.3C922.2,431.1,896.6,430.6,871.1,430z"/>
	<path class="st3" d="M926.3,416.6l-29,365h-27.8l9.8-369c1.7,1.9,9.1,10,21.7,11.4C914.8,425.7,924.5,418.1,926.3,416.6z"/>
	<path class="st4" d="M822.9,522.9c-2,6.6-9.3,24.1-0.2,41.4c1.9,3.5,6.8,4.8,9,7.3c-13.6-0.9-27.1-1.7-40.7-2.6l24.1-45.5
		L822.9,522.9z"/>
	<path class="st0" d="M822.7,517.3c0.5,5.6,0.7,15.7-3.3,27.3c-4,11.7-10.4,19.6-14.3,23.7c12.9,0.9,27.1,2.9,42.3,6.3
		c40.6,9.3,72.2,26,94,40.3c-1.8,17.2-2.1,20.2-3.9,37.5c-31.8-3.6-72.3,3.3-115.1-11.5c-29.5-10.2-55.1-21.9-76.7-33.3
		c-2.8-22.3-4.4-59.6,8.3-102.7c9.2-31,22.6-60.1,33.7-70.7c9.7-4.5,20.5-8.9,32.4-13c17.1-5.8,33.1-9.7,47.3-12.3"/>
	<path class="st5" d="M738.8,595.2c0-19.3,8.1-31.3,31.5-20.8c23.3,10.3,43.7,15,52.5,20.6c16.3,10.4-12,29.2-37.6,29.2
		C759.5,624.2,738.8,614.5,738.8,595.2z"/>
	<path class="st5" d="M995.4,607.8c0-19.3-7.2-31.3-28-20.8c-20.7,10.3-38.8,15-46.6,20.6c-14.5,10.4,10.6,29.2,33.4,29.2
		S995.4,627.1,995.4,607.8z"/>
	<path class="st0" d="M861.8,425.5c-0.3-2.7-1.5-9.5-6.9-15.8c-6.3-7.4-14.4-9.3-16.9-9.8c13.8-10.9,35.9-25.6,65.3-27.5
		c31.6-2,54.7,10.5,63,15.5c11.4,8.1-12.8,19.7-21.4,29.5c-8.7,9.8,55.6,44.6,82.2,54.5c-11,11.8-28.8,33.9-39.4,66.7
		c-7.8,24.2-10,43.2-11.2,55.3c-13.2-4.9-50.9-8.4-87.1-9.7c-30.4-1.1-56.9,1.7-78,5.4c-4.9,11.2-9.9,22.5-14.8,33.7
		c40,16.1,101.3,33.7,175.2,28.5c21.2-1.5,43-2.5,58-8.7c6.7-2.5,33.7-40.5,42.3-83.8c10.1-50.7-7.6-100.3-11.7-105.5
		c-3.1-4.7-27.9-17.3-44.9-23.8c-16.4-5.2-34.6-8.8-50.9-16.2"/>
	<line class="st1" x1="962" y1="419.4" x2="968.7" y2="395.3"/>
	<path class="st0" d="M969.2,393.3c-1.2,4.3-3,12.7-1,23c1.7,8.4,5.2,14.6,7.6,18.1c-16.1-2.1-32.1-4.1-48.2-6.2l5.3-25.4
		L969.2,393.3z"/>
	<path class="st2" d="M852.5,400c7.7-5.3,24.7-15.3,48.7-17.3c27.2-2.4,47.8,6.9,56.1,11.2c-2.7,3.4-6.4,9-8.3,16.5
		c-2.9,11.2,0.7,17-1.2,21.4c-2.9,6.7-19.2,10.4-76.5-1.7c-0.4-3.6-1.6-10.4-6.1-17.5C860.7,405.8,855.5,401.9,852.5,400z"/>
	<polygon class="st3" points="878.9,428 879.3,412.8 926.7,411.3 925.1,431.4 	"/>
	<path class="st6" d="M872.8,656.5l34.2,2.2l0.6-7.5c-4.7,0-9.5,0-14.4-0.1c-6.9-0.1-13.7-0.4-20.2-0.7
		C873,651,872.8,655.9,872.8,656.5z"/>
	<path class="st2" d="M872.8,656.5l0.2-6.1c-10.5-0.9-22.5-2.7-35.5-5.7c-11.7-2.7-22.1-6.1-31.2-9.5c0,2.4,0,4.9,0,7.3
		c8.7,3.1,18.6,6.2,29.7,8.7C849.6,654.2,862,655.8,872.8,656.5z"/>
	<path class="st2" d="M907,658.7c13.4,1.2,27.7,2,42.8,2.3c11.9,0.2,23.4,0.1,34.2-0.4c1-3.3,2-6.7,3-10c-11.5,1-23.7,1.6-36.7,1.8
		c-15.2,0.2-29.5-0.3-42.7-1.2C907.4,653.7,907.2,656.2,907,658.7z"/>
	<path class="st3" d="M878.9,428l-0.5,16.6c2.1,2.7,9,10.3,21,13.8c11.1,3.2,20.3,0.1,23.6-1.1c0.7-8.4,1.4-17.5,2.1-25.9L878.9,428
		z"/>
	<polyline class="st7" points="795.6,800 805.4,771.1 952.1,765.6 956,800 	"/>
	<polygon class="st8" points="804.5,773.7 952.7,771.5 954.4,786.4 800.2,786.5 	"/>
	<path class="st0" d="M805.4,771.1l57.6-2.2l-1.4,31.1c-6.6,0-20.6-1-35.3-9.7C815.6,784,809,776.1,805.4,771.1z"/>
	<polygon class="st2" points="869.8,768.7 868.1,800 861.6,800 863,768.9 	"/>
	<path class="st0" d="M908,767.3l-1.6,32.7c6-1.2,17.5-4.4,28.8-13.6c9.1-7.4,14.2-15.7,16.9-20.9
		C937.4,766.1,922.7,766.7,908,767.3z"/>
	<polygon class="st2" points="908,767.3 906.4,800 895.4,800 898.4,767.6 	"/>
	<path class="st9" d="M931.8,347.3c-1,12.7-2,25.4-3.1,38.1l-49.3-2.2l-0.2-37c3,2.5,11.4,8.7,23.8,9.6
		C918.3,357,929.1,349.4,931.8,347.3z"/>
	<path class="st5" d="M928.7,385.4c-0.8,10.4-1.7,20.9-2.5,31.3c-1.9,1.5-10.8,8.6-23.9,7.6c-13.5-1-21.5-9.8-23-11.5l0.1-29.6
		c4.5,2.4,15.2,6.5,23.5,6.7C914.8,390.2,923.9,387.4,928.7,385.4z"/>
	<path class="st9" d="M879.4,383.2l49.3,2.2c-4.7,2-13.7,5.4-25.6,4.7C892.2,389.4,883.9,385.6,879.4,383.2z"/>
	<path class="st5" d="M1008.9,150c-9.6,34.4-18.4,72.9-25,114.9c-4.4,27.7-6.2,66.3-12,77.5c-2.4,6.8-14.7,15.7-32.2,24.7
		c-29.2,15-56,7.2-61.7,3.8c-9.5-5.7-24-14.4-32.9-35.3c-3.8-8.8-6.1-17.1-7.6-24.4c-5.5-62.2-11.1-124.3-16.6-186.5L1008.9,150z"/>
	<path class="st9" d="M842.1,160c8.6,9.5,22,13.1,34.5,11.7c14.1-1.5,26.5-8.2,40-11.8c11.6-3.1,23.3-1.4,32.6,6.7
		c10.5,9,19.8,19.3,34.7,19.3c12.9,0,12.9-20,0-20c-4.8,0-8.7-2.8-12.2-5.8c-4.8-4.2-9.2-8.8-14.4-12.5
		c-10.4-7.3-23.6-10.4-36.2-8.8c-12.8,1.6-24.2,7.4-36.5,11c-9.6,2.8-21,4.2-28.3-3.9C847.6,136.3,833.5,150.5,842.1,160z"/>
	<path class="st9" d="M974.3,266.8c4.3,0.3,6.2-2.6,7.1-6.4c1.7-7.5,3.6-14.5,7-21.5c0.9-1.7-1.7-3.2-2.6-1.5c-2,4-3.7,8.1-5,12.3
		c-1,3.2-1.6,14.4-6.5,14.1C972.3,263.7,972.3,266.7,974.3,266.8z"/>
	<path class="st9" d="M834.7,254.2c5.3-1.8,6.2-6.9,6.3-12c0.1-8.9-2.5-17.5-3-26.3c-0.5-9.2,2.4-17.5,5.1-26.1
		c2.8-9.1,5.7-18.2,8.5-27.3c0.6-1.8-2.3-2.6-2.9-0.8c-2.4,7.5-4.7,15.1-7.1,22.6c-2.3,7.3-5.1,14.7-6.3,22.3
		c-1,6.3-0.3,12.6,0.6,18.8c0.8,5.5,5.7,23.2-2.2,25.9C832,252,832.8,254.9,834.7,254.2z"/>
	<path class="st10" d="M912.7,211.6c9.6,0,19.3,0,28.9,0c1.9,0,1.9-3,0-3c-9.6,0-19.3,0-28.9,0C910.8,208.6,910.8,211.6,912.7,211.6
		z"/>
	<path class="st10" d="M855,211.6c9.6,0,19.3,0,28.9,0c1.9,0,1.9-3,0-3c-9.6,0-19.3,0-28.9,0C853.1,208.6,853.1,211.6,855,211.6z"/>
	<path class="st11" d="M926.2,217.8c5.4,0,9.7,5.5,9.7,12.3s-4.3,12.3-9.7,12.3s-9.7-5.5-9.7-12.3S920.8,217.8,926.2,217.8z"/>
	<path class="st11" d="M869.5,217.8c5.4,0,9.7,5.5,9.7,12.3s-4.3,12.3-9.7,12.3s-9.7-5.5-9.7-12.3S864.1,217.8,869.5,217.8z"/>
	<path class="st11" d="M910.8,209.7c2.4-7,9.1-11.7,16.5-11.7c7.3,0.1,13.8,4.7,16.3,11.7"/>
	<path class="st11" d="M853.1,209.7c2.4-7,9.1-11.7,16.5-11.7c7.3,0.1,13.8,4.7,16.3,11.7"/>
	<path class="st9" d="M876.6,331.6c17.7,7.2,37.5,2.1,49.5-12.8c1.2-1.5-0.9-3.6-2.1-2.1c-11.4,14.1-29.8,18.8-46.6,12
		C875.6,327.9,874.8,330.8,876.6,331.6z"/>
	<path class="st9" d="M893.8,250.2c0,5.5,0,11.1,0,16.6c0.5-0.5,1-1,1.5-1.5c-10.1,0-19.1,7.5-19.1,18c0.1,10.4,9.1,17.9,19.1,17.8
		c1.9,0,1.9-3,0-3c-8.4,0-16-6.1-16.1-14.8c-0.1-8.9,7.7-15,16.1-15c0.8,0,1.5-0.7,1.5-1.5c0-5.5,0-11.1,0-16.6
		C896.8,248.3,893.8,248.3,893.8,250.2z"/>
	<path class="st9" d="M949.2,310.3c-0.3,6.5-5.2,12-12,12c-6.5,0-12-5.5-12-12C925.2,294.7,948.5,294.9,949.2,310.3
		c0.1,1.9,3.1,1.9,3,0c-0.4-8.2-6.5-15-15-15c-8.1,0-15.1,6.9-15,15c0,8.2,6.8,15,15,15c8.5,0,14.6-6.9,15-15
		C952.3,308.4,949.3,308.4,949.2,310.3z"/>
	<polygon class="st5" points="918.1,289.2 953.2,328.7 961.1,284.4 	"/>
	<path class="st12" d="M934.9,303.9c0.9,0,1.7,0.8,1.7,1.7s-0.8,1.7-1.7,1.7c-0.9,0-1.7-0.8-1.7-1.7S934,303.9,934.9,303.9z"/>
	<path class="st12" d="M942.3,312.7c0.9,0,1.7,0.8,1.7,1.7s-0.8,1.7-1.7,1.7c-0.9,0-1.7-0.8-1.7-1.7S941.4,312.7,942.3,312.7z"/>
	<path class="st12" d="M933.6,313.2c0.9,0,1.7,0.8,1.7,1.7s-0.8,1.7-1.7,1.7c-0.9,0-1.7-0.8-1.7-1.7S932.7,313.2,933.6,313.2z"/>
	<path class="st13" d="M1028.5,50.3c1.4,12.5,2.2,26.6,1.5,42c-1.9,42.8-13.8,77.4-24.7,101.1c-0.7,2.2-1.4,4.4-2,6.6l-38.2-20.3
		c-1.3-5.6-3.2-10.2-4.9-13.6c-2.2-2.5-12.9-14.1-30.8-15.5c-14.5-1.1-25.1,5.2-28.5,7.4c-3,2.1-13.4,8.8-27.8,7.8
		c-11.6-0.8-19.6-6.2-22.7-8.6c-4.6,16.8-9.2,33.6-13.8,50.5c-1.9,12.4,8.7,46.5-3.8,47.6c-0.3,0-2.1,0.1-3.4,0.2
		c0.2-6.5-0.3-14.8-2.3-24.1c-1.3-5.8-3-10.9-4.7-15.2c-4-17.1-8-34.2-12-51.3l-4.1-31.2c9.3-7.6,22.2-12.8,40.1-14.6
		c23.4-2.5,46,5.3,59,10.5c12.5,4.9,28.2,3.6,49.7-4.3c8.8,1.6,16.7,2.6,23.4,3c2.5-1.7,13.4-9.6,19.9-23.7
		c7-3.9,14.2-7.9,22.1-12.6c-7.3,3.9-14.3,7.3-21,10.2c1.2-3,2.2-6.2,2.8-9.7c1.6-8.4,1-16-0.3-22.2
		C1013.9,63.2,1022.6,55.9,1028.5,50.3z"/>
	<path class="st14" d="M1003.3,199.9c-4.3,14.1-8.7,28.2-13,42.2c-1.9-1.5-3.3-2.3-4.5-2.2c-0.8,0-3.3,7.8-5.7,15.1
		c-0.3,1-1.3,8.3-3.9,10.7c-0.4,0.4-1.2,1.2-2.3,1c-1-0.1-1.7-0.9-1.9-1.2c-0.4-13.8-1-32.3-2.8-48.3c-0.9-8.5-1.8-17.1-2.8-25.6
		c0-3.3-0.4-7.4-1.4-12c3.7,3.9,9.6,9.3,18.3,13.8C991.2,197.4,998.3,199.1,1003.3,199.9z"/>
	<path class="st13" d="M965.1,179.6l38.2,20.3c-5-0.8-12.1-2.6-19.9-6.6C974.8,188.9,968.8,183.5,965.1,179.6z"/>
	<path class="st13" d="M1002.2,70c1.3,6.2,1.9,13.8,0.3,22.2c-0.7,3.5-1.7,6.7-2.8,9.7c-36.8,16-63.5,16.9-83,12.3
		c-22.3-9.1-38.8-20.8-49.5-29.6c11.4,2.8,34,6.9,61.3,1.9c6.1,0.7,11.8,1,17.2,1.2c10.5-0.9,25.6-3.4,42.5-10.8
		C993.3,74.8,997.9,72.4,1002.2,70z"/>
	<path class="st15" d="M999.7,101.9c6.7-2.9,13.5-6,20.8-9.9c-7.8,4.8-15.1,8.8-22.1,12.6C998.8,103.7,999.3,102.8,999.7,101.9z"/>
	<path class="st15" d="M999.7,101.9c-0.4,0.9-0.9,1.8-1.3,2.7c-16.7,9.3-30.9,16.2-43.3,20.7c-9.3-1.6-19.5-4.2-30.3-8
		c-2.8-1-5.5-2-8.1-3.1C936.1,118.8,962.8,117.9,999.7,101.9z"/>
	<path class="st14" d="M996.3,54.3c1.3,2.2,4.2,7.9,5.9,15.7c-4.3,2.5-8.9,4.8-13.9,7c-16.9,7.3-32,9.8-42.5,10.8
		c-5.3-0.2-11.1-0.6-17.2-1.2c5-0.9,10.1-2.1,15.4-3.7C968.9,75.3,986.4,62.7,996.3,54.3z"/>
	<path class="st13" d="M998.4,104.6c-6.5,14.1-17.4,22-19.9,23.7c-6.7-0.3-14.6-1.4-23.4-3C967.4,120.8,981.7,113.9,998.4,104.6z"/>
	<path class="st15" d="M924.8,117.3c10.8,3.8,21.1,6.4,30.3,8c-21.5,7.9-37.3,9.2-49.7,4.3c-13-5.1-35.6-12.9-59-10.5
		c-17.9,1.9-30.7,7.1-40.1,14.6c0.5-0.4,0.7-16.3,2.1-21.7c0-0.1,0,0,0,0c0.1-0.2,0.1-0.4,0.2-0.6c0-0.1,0-0.1,0.1-0.2
		c4.3-11.2,30.6-16,40.3-17.7c22.3-3.9,38.1,10.2,57.2,17.5c3.3,1.2,6.8,2.3,10.5,3.2C919.3,115.3,922,116.3,924.8,117.3z"/>
	<path class="st13" d="M915.3,84.8c4.6,0.8,9.1,1.3,13.3,1.8c-27.4,5-50,0.9-61.3-1.9c10.7,8.8,27.2,20.5,49.5,29.6
		c-3.8-0.9-7.3-2-10.5-3.2c-19.1-7.3-34.9-21.4-57.2-17.5c-9.7,1.7-36,6.5-40.3,17.8c0.3-0.9,0.6-1.9,1-2.8
		c3.9-10,9.7-16.5,13.2-19.8c5.2-4,15.8-10.9,30.8-13.3c10.8-1.8,19.8-0.6,25.6,0.7C889.5,79.3,901.6,82.5,915.3,84.8z"/>
	<path class="st15" d="M808.6,111.5c-0.1,0.2-0.1,0.4-0.2,0.6C808.5,111.9,808.5,111.7,808.6,111.5z"/>
	<path class="st13" d="M808.4,112.3c0-0.1-0.7,4.8-1.2,10.2c-0.1,1.1,0,1.1,0,2.4c0,3.1-0.3,5.4-0.5,6.3c-0.1,0.9-0.3,1.7-0.4,2.4
		c-0.1-0.6-0.3-1.2-0.4-1.8C805.8,127.6,805.8,120.5,808.4,112.3z"/>
</g>
</svg>
